<?xml version="1.0" encoding="UTF-8"?>
<svg width="43px" height="35px" viewBox="0 0 43 35" version="1.1" xmlns="http://www.w3.org/2000/svg" xmlns:xlink="http://www.w3.org/1999/xlink">
    <title>3</title>
    <g id="卡片" stroke="none" stroke-width="1" fill="none" fill-rule="evenodd">
        <g id="Apple-TV" transform="translate(-1028.000000, -265.000000)">
            <g id="3" transform="translate(1028.000000, 265.000000)">
                <path d="M28.7768718,5.8338448 C30.0535368,5.8338448 31.6460022,10.7525953 31.6460022,13.5288962 C31.6460022,13.8050385 31.4221445,14.0288962 31.1460022,14.0288962 C30.8698598,14.0288962 30.6460022,13.8050385 30.6460022,13.5288962 C30.6460022,11.3111812 29.1964464,6.8338448 28.7768718,6.8338448 C28.6790981,6.8338448 28.1030215,7.41401334 27.325359,8.3938855 L26.2893391,9.71349281 C26.1795432,9.85033714 26.0831458,9.96773251 25.9928603,10.0742846 L25.7656888,10.3354182 C25.4149251,10.7239859 25.1903611,10.8838665 24.8958408,10.8838665 C24.7888608,10.8838665 24.661326,10.8728657 24.491552,10.850052 L23.2723796,10.6510916 C22.7371229,10.5637482 22.3022763,10.5048105 21.885527,10.4684714 C21.6055237,10.4440561 21.3455106,10.4313705 21.1045801,10.4313705 C20.8665684,10.4313705 20.6096517,10.4437528 20.3334228,10.4675796 C19.9966872,10.4966257 19.6470444,10.5406672 19.2481677,10.6018638 L17.9877928,10.8134328 C17.6751032,10.8628777 17.4902515,10.8838665 17.3570536,10.8838665 C17.0886264,10.8838665 16.8784837,10.7491056 16.5117692,10.3955674 L16.271233,10.1565192 C16.1468266,10.0302742 16.0130469,9.89017275 15.8377998,9.70321834 L14.9541004,8.75719439 L14.7449522,8.53822789 C13.9131336,7.67529008 13.3044612,7.18275971 13.1324785,7.18275971 C12.9016851,7.18275971 12.2028475,9.40714639 11.5565745,13.3502389 C11.5119107,13.6227453 11.2547934,13.8074483 10.9822869,13.7627844 C10.7097805,13.7181206 10.5250776,13.4610033 10.5697414,13.1884969 L10.6879315,12.4826187 C11.4319537,8.13819333 12.0980171,6.18275971 13.1324785,6.18275971 C13.6848556,6.18275971 14.2971543,6.65193167 15.2768484,7.6507267 L15.9022388,8.30573536 L16.7944582,9.25955923 C16.8627984,9.33107279 16.9245499,9.39478928 16.9835073,9.45461797 L17.1717712,9.6409653 C17.2571823,9.7229184 17.3296582,9.78815661 17.3898559,9.83720177 C17.4220338,9.8634182 17.4440492,9.87755377 17.4017158,9.88215935 L17.5114072,9.87205979 C17.7024363,9.84914341 18.0549398,9.78947521 18.7771839,9.66422535 C19.3324782,9.57304774 19.7969784,9.51013876 20.2474843,9.4712792 C20.550817,9.44511444 20.8359861,9.43137048 21.1045801,9.43137048 C21.3764522,9.43137048 21.6650118,9.44544882 21.9723939,9.47225148 C22.3290092,9.50334709 22.693139,9.54925232 23.1100975,9.61297019 L24.3606704,9.819458 C24.4976048,9.84139293 24.608955,9.85749506 24.6972928,9.86811345 L24.8958408,9.88386651 C24.8147861,9.88386651 24.8087549,9.87762369 24.828616,9.85778677 L24.8475989,9.84024533 C24.9246622,9.7700315 25.0216196,9.66798026 25.1385117,9.53414845 L25.2299191,9.42781662 C25.3144672,9.32803573 25.4061047,9.21640626 25.5115047,9.08500799 L26.5420647,7.77223444 L26.8703715,7.36376403 C27.7536052,6.28186312 28.2535502,5.8338448 28.7768718,5.8338448 Z" id="路径-17" fill="#333333" fill-rule="nonzero"></path>
                <path d="M9.32810085,13.9984008 C9.51447982,13.7946424 9.83074866,13.7805536 10.0345071,13.9669326 C10.2382655,14.1533115 10.2523543,14.4695804 10.0659753,14.6733388 C6.45490726,18.621131 4.99431677,22.79512 5.65435071,27.2284879 C6.2959909,31.5383073 9.86578115,33.783441 16.5508705,33.9582073 C16.8269186,33.9654239 17.0448495,34.1950553 17.0376329,34.4711034 C17.0304162,34.7471514 16.8007848,34.9650824 16.5247368,34.9580399 C9.40591584,34.7717605 5.39037131,32.2462804 4.66525225,27.3757436 C3.95852695,22.6287554 5.52276086,18.1585804 9.32810085,13.9984008 Z" id="路径-18" fill="#333333" fill-rule="nonzero"></path>
                <path d="M4.55794098,13.9237539 L3.93933983,14.0639505 C3.5700149,14.1476524 3.2027641,13.9161092 3.11906221,13.5467843 C3.09645039,13.4470122 3.09645039,13.3434449 3.11906221,13.2436729 L3.25925878,12.6250717 C3.32521312,12.3340558 3.32521312,12.0319696 3.25925878,11.7409537 L3.11906221,11.1223525 C3.03536031,10.7530276 3.26690352,10.3857768 3.63622845,10.3020749 C3.73600046,10.2794631 3.83956782,10.2794631 3.93933983,10.3020749 L4.55794098,10.4422715 C4.8489569,10.5082258 5.1510431,10.5082258 5.44205902,10.4422715 L6.06066017,10.3020749 C6.4299851,10.218373 6.7972359,10.4499162 6.88093779,10.8192412 C6.90354961,10.9190132 6.90354961,11.0225805 6.88093779,11.1223525 L6.74074122,11.7409537 C6.67478688,12.0319696 6.67478688,12.3340558 6.74074122,12.6250717 L6.88093779,13.2436729 C6.96463969,13.6129978 6.73309648,13.9802486 6.36377155,14.0639505 C6.26399954,14.0865623 6.16043218,14.0865623 6.06066017,14.0639505 L5.44205902,13.9237539 C5.1510431,13.8577996 4.8489569,13.8577996 4.55794098,13.9237539 Z" id="星形" fill="#FFC41D" transform="translate(5.000000, 12.183013) rotate(-315.000000) translate(-5.000000, -12.183013) "></path>
                <path d="M37.557941,13.9237539 L36.9393398,14.0639505 C36.5700149,14.1476524 36.2027641,13.9161092 36.1190622,13.5467843 C36.0964504,13.4470122 36.0964504,13.3434449 36.1190622,13.2436729 L36.2592588,12.6250717 C36.3252131,12.3340558 36.3252131,12.0319696 36.2592588,11.7409537 L36.1190622,11.1223525 C36.0353603,10.7530276 36.2669035,10.3857768 36.6362285,10.3020749 C36.7360005,10.2794631 36.8395678,10.2794631 36.9393398,10.3020749 L37.557941,10.4422715 C37.8489569,10.5082258 38.1510431,10.5082258 38.442059,10.4422715 L39.0606602,10.3020749 C39.4299851,10.218373 39.7972359,10.4499162 39.8809378,10.8192412 C39.9035496,10.9190132 39.9035496,11.0225805 39.8809378,11.1223525 L39.7407412,11.7409537 C39.6747869,12.0319696 39.6747869,12.3340558 39.7407412,12.6250717 L39.8809378,13.2436729 C39.9646397,13.6129978 39.7330965,13.9802486 39.3637715,14.0639505 C39.2639995,14.0865623 39.1604322,14.0865623 39.0606602,14.0639505 L38.442059,13.9237539 C38.1510431,13.8577996 37.8489569,13.8577996 37.557941,13.9237539 Z" id="星形备份" fill="#FFC41D" transform="translate(38.000000, 12.183013) rotate(-315.000000) translate(-38.000000, -12.183013) "></path>
                <path d="M30.3278117,13.9984008 C30.5141906,13.7946424 30.8304595,13.7805536 31.0342179,13.9669326 C31.2379763,14.1533115 31.2520651,14.4695804 31.0656861,14.6733388 C27.4546181,18.621131 25.9940276,22.79512 26.6540615,27.2284879 C27.2957017,31.5383073 30.865492,33.783441 37.5505813,33.9582073 C37.8266294,33.9654239 38.0445603,34.1950553 38.0373437,34.4711034 C38.030127,34.7471514 37.8004956,34.9650824 37.5244476,34.9580399 C30.4056266,34.7717605 26.3900821,32.2462804 25.6649631,27.3757436 C24.9582378,22.6287554 26.5224717,18.1585804 30.3278117,13.9984008 Z" id="路径-18备份" fill="#333333" fill-rule="nonzero" transform="translate(31.768709, 24.396953) scale(-1, 1) translate(-31.768709, -24.396953) "></path>
                <g id="编组-26" transform="translate(3.000000, 16.183013)" fill="#333333" fill-rule="nonzero">
                    <path d="M0.532121855,0.000945854524 L0.621267813,0.0149287499 L4.62126781,1.01492875 C4.88916527,1.08190311 5.05204561,1.35337036 4.98507125,1.62126781 C4.92553848,1.85939888 4.70443109,2.01455347 4.46787814,1.99905415 L4.37873219,1.98507125 L0.378732187,0.98507125 C0.110834733,0.918096887 -0.0520456136,0.646629641 0.0149287499,0.378732187 C0.0744615175,0.140601117 0.295568908,-0.0145534734 0.532121855,0.000945854524 Z" id="直线-2"></path>
                    <path d="M4.43798263,2.50386106 C4.7119926,2.46960982 4.96188769,2.66397266 4.99613894,2.93798263 C5.02658449,3.18154705 4.87639668,3.40605774 4.65019979,3.47699778 L4.56201737,3.49613894 L0.562017367,3.99613894 C0.288007398,4.03039018 0.0381123078,3.83602734 0.00386106164,3.56201737 C-0.0265844905,3.31845295 0.123603316,3.09394226 0.349800214,3.02300222 L0.437982633,3.00386106 L4.43798263,2.50386106 Z" id="直线-2备份"></path>
                </g>
                <g id="编组-22" transform="translate(36.500000, 18.683013) scale(-1, 1) translate(-36.500000, -18.683013) translate(34.000000, 16.183013)" fill="#333333" fill-rule="nonzero">
                    <path d="M0.532121855,0.000945854524 L0.621267813,0.0149287499 L4.62126781,1.01492875 C4.88916527,1.08190311 5.05204561,1.35337036 4.98507125,1.62126781 C4.92553848,1.85939888 4.70443109,2.01455347 4.46787814,1.99905415 L4.37873219,1.98507125 L0.378732187,0.98507125 C0.110834733,0.918096887 -0.0520456136,0.646629641 0.0149287499,0.378732187 C0.0744615175,0.140601117 0.295568908,-0.0145534734 0.532121855,0.000945854524 Z" id="直线-2备份-2"></path>
                    <path d="M4.43798263,2.50386106 C4.7119926,2.46960982 4.96188769,2.66397266 4.99613894,2.93798263 C5.02658449,3.18154705 4.87639668,3.40605774 4.65019979,3.47699778 L4.56201737,3.49613894 L0.562017367,3.99613894 C0.288007398,4.03039018 0.0381123078,3.83602734 0.00386106164,3.56201737 C-0.0265844905,3.31845295 0.123603316,3.09394226 0.349800214,3.02300222 L0.437982633,3.00386106 L4.43798263,2.50386106 Z" id="直线-2备份-3"></path>
                </g>
                <g id="编组-28" transform="translate(12.000000, 15.183013)">
                    <path d="M1.5,3 C2.32842712,3 3,2.32842712 3,1.5 C3,0.671572875 2.32842712,0 1.5,0 C0.671572875,0 0,0.671572875 0,1.5 C0,2.32842712 0.671572875,3 1.5,3 Z" id="椭圆形" fill="#333333"></path>
                    <path d="M1.99693031,2.5 C2.27307269,2.5 2.49693031,2.27614237 2.49693031,2 C2.49693031,1.72385763 2.27307269,1.5 1.99693031,1.5 C1.72078794,1.5 1.49693031,1.72385763 1.49693031,2 C1.49693031,2.27614237 1.72078794,2.5 1.99693031,2.5 Z" id="椭圆形备份-10" fill="#FFFFFF"></path>
                    <path d="M1,1.30444914 C1.27614237,1.30444914 1.5,1.58059151 1.5,1.30444914 C1.5,1.02830676 1.27614237,0.804449137 1,0.804449137 C0.723857625,0.804449137 0.5,1.02830676 0.5,1.30444914 C0.5,1.58059151 0.723857625,1.30444914 1,1.30444914 Z" id="椭圆形备份-9" fill="#FFFFFF" transform="translate(1.000000, 1.115814) scale(-1, 1) rotate(30.000000) translate(-1.000000, -1.115814) "></path>
                </g>
                <g id="编组-28备份" transform="translate(27.500000, 16.683013) scale(-1, 1) translate(-27.500000, -16.683013) translate(26.000000, 15.183013)">
                    <path d="M1.5,3 C2.32842712,3 3,2.32842712 3,1.5 C3,0.671572875 2.32842712,0 1.5,0 C0.671572875,0 0,0.671572875 0,1.5 C0,2.32842712 0.671572875,3 1.5,3 Z" id="椭圆形" fill="#333333"></path>
                    <path d="M1.99693031,2.5 C2.27307269,2.5 2.49693031,2.27614237 2.49693031,2 C2.49693031,1.72385763 2.27307269,1.5 1.99693031,1.5 C1.72078794,1.5 1.49693031,1.72385763 1.49693031,2 C1.49693031,2.27614237 1.72078794,2.5 1.99693031,2.5 Z" id="椭圆形备份-10" fill="#FFFFFF"></path>
                    <path d="M1,1.30444914 C1.27614237,1.30444914 1.5,1.58059151 1.5,1.30444914 C1.5,1.02830676 1.27614237,0.804449137 1,0.804449137 C0.723857625,0.804449137 0.5,1.02830676 0.5,1.30444914 C0.5,1.58059151 0.723857625,1.30444914 1,1.30444914 Z" id="椭圆形备份-9" fill="#FFFFFF" transform="translate(1.000000, 1.115814) scale(-1, 1) rotate(30.000000) translate(-1.000000, -1.115814) "></path>
                </g>
                <path d="M11,21.6830127 C12.1045695,21.6830127 13,20.7875822 13,19.6830127 C13,18.5784432 12.1045695,17.6830127 11,17.6830127 C9.8954305,17.6830127 9,18.5784432 9,19.6830127 C9,20.7875822 9.8954305,21.6830127 11,21.6830127 Z" id="椭圆形备份-6" fill="#F6B2B1"></path>
                <path d="M31,21.6830127 C32.1045695,21.6830127 33,20.7875822 33,19.6830127 C33,18.5784432 32.1045695,17.6830127 31,17.6830127 C29.8954305,17.6830127 29,18.5784432 29,19.6830127 C29,20.7875822 29.8954305,21.6830127 31,21.6830127 Z" id="椭圆形备份-7" fill="#F6B2B1"></path>
                <g id="编组-27" transform="translate(17.440270, 16.683013)" fill="#333333">
                    <path d="M3.55973011,1 C4.11201486,1 4.4209444,0.776142375 4.4209444,0.5 C4.4209444,0.223857625 4.11201486,0 3.55973011,0 C3.00744536,0 2.73769821,0.223857625 2.73769821,0.5 C2.73769821,0.776142375 3.00744536,1 3.55973011,1 Z" id="椭圆形备份-8"></path>
                    <path d="M1.62321956,-0.283998418 C2.72778906,-0.283998418 3.62321956,0.611432083 3.62321956,1.71600158 C3.62321956,2.77036338 2.80734177,3.6341667 1.77248191,3.71051585 L1.62321956,3.71600158 L1,3.71600158 C0.723857625,3.71600158 0.5,3.49214396 0.5,3.21600158 C0.5,2.97054169 0.676875161,2.76639321 0.910124368,2.72405725 L1,2.71600158 L1.62321956,2.71600158 C2.17550431,2.71600158 2.62321956,2.26828633 2.62321956,1.71600158 C2.62321956,1.20316574 2.23717937,0.780494422 1.73984069,0.722729314 L1.62321956,0.716001582 L1,0.716001582 C0.723857625,0.716001582 0.5,0.492143957 0.5,0.216001582 C0.5,-0.0294583065 0.676875161,-0.233606788 0.910124368,-0.275942748 L1,-0.283998418 L1.62321956,-0.283998418 Z" id="矩形" fill-rule="nonzero" transform="translate(2.061610, 1.716002) rotate(-270.000000) translate(-2.061610, -1.716002) "></path>
                    <path d="M4.62321956,-0.283998418 C5.72778906,-0.283998418 6.62321956,0.611432083 6.62321956,1.71600158 C6.62321956,2.77036338 5.80734177,3.6341667 4.77248191,3.71051585 L4.62321956,3.71600158 L4,3.71600158 C3.72385763,3.71600158 3.5,3.49214396 3.5,3.21600158 C3.5,2.97054169 3.67687516,2.76639321 3.91012437,2.72405725 L4,2.71600158 L4.62321956,2.71600158 C5.17550431,2.71600158 5.62321956,2.26828633 5.62321956,1.71600158 C5.62321956,1.20316574 5.23717937,0.780494422 4.73984069,0.722729314 L4.62321956,0.716001582 L4,0.716001582 C3.72385763,0.716001582 3.5,0.492143957 3.5,0.216001582 C3.5,-0.0294583065 3.67687516,-0.233606788 3.91012437,-0.275942748 L4,-0.283998418 L4.62321956,-0.283998418 Z" id="矩形备份-11" fill-rule="nonzero" transform="translate(5.061610, 1.716002) rotate(-270.000000) translate(-5.061610, -1.716002) "></path>
                </g>
                <path d="M13.3518734,9.45783026 C13.0111864,9.57265526 12.8014764,10.2000602 12.5941705,11.0612134 C12.3868645,11.9223666 12.2185388,12.7886549 12.51751,12.9237933 C12.8164811,13.0589316 14.9759961,12.0380072 15.0664829,11.5356656 C15.1569697,11.033324 13.6925604,9.34300527 13.3518734,9.45783026 Z" id="路径-19" fill="#F6B2B1"></path>
                <path d="M27.9963398,9.45783026 C27.6556528,9.57265526 27.4459428,10.2000602 27.2386368,11.0612134 C27.0313309,11.9223666 26.8630052,12.7886549 27.1619764,12.9237933 C27.4609475,13.0589316 29.6204624,12.0380072 29.7109493,11.5356656 C29.8014361,11.033324 28.3370267,9.34300527 27.9963398,9.45783026 Z" id="路径-19备份" fill="#F6B2B1" transform="translate(28.357484, 11.194125) scale(-1, 1) translate(-28.357484, -11.194125) "></path>
                <path d="M6.88093779,10.8192412 C6.90354961,10.9190132 6.90354961,11.0225805 6.88093779,11.1223525 L6.74074122,11.7409537 C6.67478688,12.0319696 6.67478688,12.3340558 6.74074122,12.6250717 L6.88093779,13.2436729 C6.96463969,13.6129978 6.73309648,13.9802486 6.36377155,14.0639505 C6.26399954,14.0865623 6.16043218,14.0865623 6.06066017,14.0639505 L5.44205902,13.9237539 C5.1510431,13.8577996 4.8489569,13.8577996 4.55794098,13.9237539 L3.93933983,14.0639505 C3.5700149,14.1476524 3.2027641,13.9161092 3.11906221,13.5467843 C3.09645039,13.4470122 3.09645039,13.3434449 3.11906221,13.2436729 L3.25925878,12.6250717 C3.32521312,12.3340558 3.32521312,12.0319696 3.25925878,11.7409537 L3.11906221,11.1223525 C3.03536031,10.7530276 3.26690352,10.3857768 3.63622845,10.3020749 C3.73600046,10.2794631 3.83956782,10.2794631 3.93933983,10.3020749 L4.55794098,10.4422715 C4.8489569,10.5082258 5.1510431,10.5082258 5.44205902,10.4422715 L6.06066017,10.3020749 C6.4299851,10.218373 6.7972359,10.4499162 6.88093779,10.8192412 Z M5.795,11.387 L5.66308853,11.4175386 C5.29931863,11.4999815 4.92401719,11.513722 4.55640344,11.4587601 L4.33691147,11.4175386 L4.204,11.387 L4.2345259,11.5199242 C4.31696883,11.8836941 4.33070932,12.2589955 4.27574737,12.6266093 L4.2345259,12.8461012 L4.204,12.978 L4.33691147,12.9484868 C4.70068137,12.8660439 5.07598281,12.8523034 5.44359656,12.9072653 L5.66308853,12.9484868 L5.795,12.978 L5.7654741,12.8461012 C5.68303117,12.4823313 5.66929068,12.1070299 5.72425263,11.7394161 L5.7654741,11.5199242 L5.795,11.387 Z" id="星形" fill="#333333" fill-rule="nonzero" transform="translate(5.000000, 12.183013) rotate(-315.000000) translate(-5.000000, -12.183013) "></path>
                <g id="编组-23" transform="translate(7.316987, 5.500000) rotate(30.000000) translate(-7.316987, -5.500000) translate(4.316987, 2.000000)" fill="#FFC41D" fill-rule="nonzero">
                    <path d="M3.35045891,0.267755475 C3.52402526,0.0941891227 3.79344966,0.0749039725 3.98831781,0.209900024 L4.05756569,0.267755475 L5.55756569,1.76775547 C5.75282784,1.96301762 5.75282784,2.27960011 5.55756569,2.47486226 C5.38399934,2.64842861 5.11457494,2.66771376 4.9197068,2.53271771 L4.85045891,2.47486226 L3.35045891,0.974862256 C3.15519677,0.77960011 3.15519677,0.46301762 3.35045891,0.267755475 Z" id="直线-2备份-4"></path>
                    <path d="M0.546070245,1.95069959 C0.664323737,1.73560271 0.9176709,1.64191899 1.14246344,1.71719076 L1.22510252,1.75343032 L5.91859926,4.33376703 C6.16058325,4.46680221 6.24890372,4.77081532 6.11586854,5.01279931 C5.99761505,5.22789619 5.74426788,5.32157991 5.51947534,5.24630814 L5.43683626,5.21006859 L0.743339521,2.62973187 C0.501355529,2.49669669 0.413035066,2.19268359 0.546070245,1.95069959 Z" id="直线-2备份-4"></path>
                    <path d="M1.59805807,4.50970966 L4.09805807,5.00970966 C4.36883794,5.06386564 4.54444631,5.32727819 4.49029034,5.59805807 C4.44215169,5.83875129 4.22867452,6.00424727 3.99165209,6.00001717 L3.90194193,5.99029034 L1.40194193,5.49029034 C1.13116206,5.43613436 0.955553687,5.17272181 1.00970966,4.90194193 C1.05784831,4.66124871 1.27132548,4.49575273 1.50834791,4.49998283 L1.59805807,4.50970966 Z" id="直线-2备份-5"></path>
                </g>
                <g id="编组-23备份" transform="translate(34.000000, 5.500000) scale(-1, 1) rotate(30.000000) translate(-34.000000, -5.500000) translate(31.000000, 2.000000)" fill="#FFC41D" fill-rule="nonzero">
                    <path d="M3.35045891,0.267755475 C3.52402526,0.0941891227 3.79344966,0.0749039725 3.98831781,0.209900024 L4.05756569,0.267755475 L5.55756569,1.76775547 C5.75282784,1.96301762 5.75282784,2.27960011 5.55756569,2.47486226 C5.38399934,2.64842861 5.11457494,2.66771376 4.9197068,2.53271771 L4.85045891,2.47486226 L3.35045891,0.974862256 C3.15519677,0.77960011 3.15519677,0.46301762 3.35045891,0.267755475 Z" id="直线-2备份-4"></path>
                    <path d="M0.546070245,1.95069959 C0.664323737,1.73560271 0.9176709,1.64191899 1.14246344,1.71719076 L1.22510252,1.75343032 L5.91859926,4.33376703 C6.16058325,4.46680221 6.24890372,4.77081532 6.11586854,5.01279931 C5.99761505,5.22789619 5.74426788,5.32157991 5.51947534,5.24630814 L5.43683626,5.21006859 L0.743339521,2.62973187 C0.501355529,2.49669669 0.413035066,2.19268359 0.546070245,1.95069959 Z" id="直线-2备份-4"></path>
                    <path d="M1.59805807,4.50970966 L4.09805807,5.00970966 C4.36883794,5.06386564 4.54444631,5.32727819 4.49029034,5.59805807 C4.44215169,5.83875129 4.22867452,6.00424727 3.99165209,6.00001717 L3.90194193,5.99029034 L1.40194193,5.49029034 C1.13116206,5.43613436 0.955553687,5.17272181 1.00970966,4.90194193 C1.05784831,4.66124871 1.27132548,4.49575273 1.50834791,4.49998283 L1.59805807,4.50970966 Z" id="直线-2备份-5"></path>
                </g>
                <path d="M39.8809378,10.8192412 C39.9035496,10.9190132 39.9035496,11.0225805 39.8809378,11.1223525 L39.7407412,11.7409537 C39.6747869,12.0319696 39.6747869,12.3340558 39.7407412,12.6250717 L39.8809378,13.2436729 C39.9646397,13.6129978 39.7330965,13.9802486 39.3637715,14.0639505 C39.2639995,14.0865623 39.1604322,14.0865623 39.0606602,14.0639505 L38.442059,13.9237539 C38.1510431,13.8577996 37.8489569,13.8577996 37.557941,13.9237539 L36.9393398,14.0639505 C36.5700149,14.1476524 36.2027641,13.9161092 36.1190622,13.5467843 C36.0964504,13.4470122 36.0964504,13.3434449 36.1190622,13.2436729 L36.2592588,12.6250717 C36.3252131,12.3340558 36.3252131,12.0319696 36.2592588,11.7409537 L36.1190622,11.1223525 C36.0353603,10.7530276 36.2669035,10.3857768 36.6362285,10.3020749 C36.7360005,10.2794631 36.8395678,10.2794631 36.9393398,10.3020749 L37.557941,10.4422715 C37.8489569,10.5082258 38.1510431,10.5082258 38.442059,10.4422715 L39.0606602,10.3020749 C39.4299851,10.218373 39.7972359,10.4499162 39.8809378,10.8192412 Z M38.795,11.387 L38.6630885,11.4175386 C38.2993186,11.4999815 37.9240172,11.513722 37.5564034,11.4587601 L37.3369115,11.4175386 L37.204,11.387 L37.2345259,11.5199242 C37.3169688,11.8836941 37.3307093,12.2589955 37.2757474,12.6266093 L37.2345259,12.8461012 L37.204,12.978 L37.3369115,12.9484868 C37.7006814,12.8660439 38.0759828,12.8523034 38.4435966,12.9072653 L38.6630885,12.9484868 L38.795,12.978 L38.7654741,12.8461012 C38.6830312,12.4823313 38.6692907,12.1070299 38.7242526,11.7394161 L38.7654741,11.5199242 L38.795,11.387 Z" id="星形备份" fill="#333333" fill-rule="nonzero" transform="translate(38.000000, 12.183013) rotate(-315.000000) translate(-38.000000, -12.183013) "></path>
            </g>
        </g>
    </g>
</svg>